<svg id="svg" version="1.1" xmlns="http://www.w3.org/2000/svg" xmlns:xlink="http://www.w3.org/1999/xlink" width="400" height="280" viewBox="0, 0, 400,280"><g id="svgg"><path id="path0" d="M194.050 47.880 C 188.834 49.381,186.308 54.322,187.624 60.454 C 188.099 62.673,188.930 63.428,189.865 62.493 C 190.227 62.132,190.256 61.753,190.012 60.607 C 188.501 53.524,191.426 49.767,198.450 49.767 C 208.616 49.767,211.825 57.064,204.710 64.002 C 201.077 67.545,198.760 72.520,198.760 76.780 C 198.760 78.074,198.727 78.118,197.597 78.327 C 189.992 79.736,183.840 86.172,181.863 94.789 C 180.462 100.894,177.414 105.669,172.248 109.848 C 160.126 119.656,129.803 135.490,96.434 149.437 C 87.599 153.130,87.555 153.153,85.947 154.864 C 84.107 156.819,78.140 169.622,78.140 171.612 C 78.140 175.542,81.505 177.092,85.581 175.039 L 87.736 173.953 154.411 173.953 L 221.085 173.953 221.081 173.101 C 221.078 172.632,220.958 172.063,220.815 171.836 C 220.599 171.497,209.705 171.427,158.261 171.439 C 124.001 171.446,95.481 171.342,94.884 171.206 C 93.837 170.968,94.122 170.798,102.946 166.376 C 112.476 161.600,161.039 137.177,185.387 124.915 C 193.125 121.018,199.669 117.829,199.929 117.829 C 200.371 117.829,234.448 134.812,264.651 150.084 C 271.984 153.792,284.322 159.994,292.068 163.866 C 301.585 168.624,306.016 170.990,305.733 171.165 C 305.502 171.307,286.956 171.434,264.518 171.448 L 223.721 171.471 223.721 172.635 L 223.721 173.798 268.217 173.953 L 312.713 174.109 314.642 175.116 C 317.423 176.569,319.089 176.393,320.897 174.458 C 322.469 172.776,322.240 171.345,319.378 164.936 C 314.833 154.759,314.135 153.832,309.612 151.966 C 277.642 138.775,250.456 125.299,234.729 114.846 C 223.646 107.481,220.146 103.173,218.001 94.264 C 216.157 86.605,210.612 80.521,203.845 78.734 L 201.240 78.046 201.240 76.452 C 201.240 72.426,202.886 69.061,206.742 65.205 C 211.863 60.084,212.189 54.473,207.609 50.304 C 204.830 47.774,198.408 46.626,194.050 47.880 M207.752 157.925 C 202.888 159.334,199.044 163.967,198.950 168.535 C 198.900 170.920,199.426 170.763,200.012 168.217 C 201.398 162.206,204.770 159.113,210.249 158.828 C 218.665 158.389,221.863 164.894,222.490 183.721 C 222.794 192.849,223.582 195.832,227.044 200.956 C 230.627 206.258,240.930 214.901,240.930 212.605 C 240.930 212.374,239.736 211.391,238.276 210.420 C 228.165 203.691,223.568 195.460,223.565 184.081 C 223.560 164.421,217.863 154.997,207.752 157.925 M199.380 175.671 C 199.380 179.926,204.654 189.764,209.599 194.735 C 214.141 199.300,225.859 206.103,225.062 203.713 C 224.900 203.226,224.825 203.183,221.343 201.565 C 211.401 196.946,204.482 188.945,201.107 178.164 C 200.153 175.116,199.380 174.001,199.380 175.671 M230.047 199.028 L 228.697 200.226 230.058 201.990 C 231.701 204.120,235.862 208.062,236.467 208.062 C 236.706 208.062,237.422 207.783,238.059 207.442 C 243.100 204.740,248.655 211.357,245.176 215.918 C 241.520 220.711,233.878 217.428,234.880 211.495 C 235.058 210.443,234.981 210.262,234.049 209.551 C 233.020 208.767,229.387 205.102,227.691 203.140 L 226.788 202.094 226.208 202.980 C 225.637 203.851,225.641 203.960,226.473 209.762 C 228.336 222.744,229.080 227.187,229.540 228.078 C 230.395 229.731,269.617 268.799,271.095 269.470 C 274.977 271.232,276.035 270.559,287.506 259.021 C 298.634 247.827,299.226 246.865,297.390 242.946 C 296.515 241.078,256.964 201.735,255.504 201.280 C 254.176 200.866,233.870 197.829,232.430 197.829 C 231.671 197.829,231.040 198.147,230.047 199.028 " stroke="none" fill="#000000" fill-rule="evenodd"></path></g></svg>