<svg id="svg" xmlns="http://www.w3.org/2000/svg" xmlns:xlink="http://www.w3.org/1999/xlink" width="400" height="391.4191419141914" viewBox="0, 0, 400,391.4191419141914"><g id="svgg"><path id="path0" d="M193.729 26.403 C 193.505 26.766,192.864 27.063,192.305 27.063 C 190.179 27.063,186.037 29.624,172.607 39.245 L 158.746 49.175 122.442 49.536 C 87.562 49.883,85.998 49.952,82.543 51.289 C 76.691 53.553,71.249 57.947,67.917 63.099 C 62.976 70.740,63.126 69.800,62.862 94.701 C 62.716 108.497,62.368 117.434,61.957 117.930 C 61.418 118.579,36.272 136.855,30.801 140.574 C 27.822 142.599,10.767 154.857,9.054 156.205 L 7.261 157.616 7.261 244.603 C 7.261 296.691,7.508 332.403,7.878 333.617 C 8.218 334.731,9.020 337.574,9.662 339.934 C 14.791 358.792,31.099 373.872,51.939 379.028 C 56.108 380.060,343.793 380.563,344.816 379.541 C 345.180 379.176,346.272 378.878,347.241 378.878 C 363.033 378.878,385.064 358.840,390.420 339.604 C 391.026 337.426,391.796 334.731,392.131 333.617 C 393.138 330.260,392.927 157.841,391.914 156.873 C 391.460 156.439,381.139 148.983,368.977 140.304 C 356.815 131.625,344.732 122.955,342.126 121.038 L 337.388 117.552 337.122 95.245 C 336.837 71.244,336.856 71.390,333.022 64.561 C 332.066 62.858,329.500 59.812,327.319 57.794 C 323.763 54.501,322.008 53.426,315.679 50.660 C 314.369 50.088,303.721 49.769,277.558 49.520 L 241.254 49.175 227.393 39.240 C 213.982 29.627,209.833 27.063,207.695 27.063 C 207.136 27.063,206.495 26.766,206.271 26.403 C 206.046 26.040,203.224 25.743,200.000 25.743 C 196.776 25.743,193.954 26.040,193.729 26.403 M206.477 32.058 C 208.179 32.627,212.244 34.989,215.512 37.307 C 218.779 39.625,223.586 42.946,226.193 44.688 C 228.801 46.430,230.855 48.152,230.759 48.515 C 230.496 49.505,170.266 49.754,169.347 48.769 C 168.853 48.241,168.859 47.941,169.366 47.753 C 169.761 47.606,174.695 44.233,180.331 40.257 C 193.706 30.822,198.388 29.353,206.477 32.058 M317.693 57.369 C 322.927 59.995,327.247 64.433,329.895 69.903 L 331.683 73.597 331.864 135.414 L 332.046 197.231 324.934 202.226 C 321.022 204.974,317.525 207.465,317.162 207.762 C 316.799 208.059,312.640 211.032,307.921 214.369 C 303.201 217.707,299.004 220.718,298.593 221.062 C 294.473 224.513,208.950 284.980,206.954 285.854 C 202.127 287.966,198.655 288.099,194.312 286.335 C 191.395 285.151,131.970 243.605,124.422 237.474 C 124.059 237.179,120.941 234.956,117.492 232.535 C 114.043 230.114,111.073 227.966,110.891 227.763 C 110.710 227.559,108.630 226.070,106.271 224.453 C 103.911 222.836,101.683 221.270,101.320 220.973 C 100.957 220.675,93.304 215.209,84.314 208.826 L 67.967 197.220 68.142 135.079 L 68.317 72.937 70.225 69.170 C 73.675 62.360,80.607 56.817,87.363 55.466 C 88.868 55.165,140.297 54.963,201.650 55.017 L 313.201 55.116 317.693 57.369 M176.530 94.077 C 164.485 100.024,158.587 109.711,163.475 115.520 C 165.761 118.237,164.796 118.973,159.406 118.625 C 148.232 117.905,145.875 120.316,145.875 132.465 L 145.875 140.643 148.845 143.530 L 151.815 146.417 151.815 176.266 C 151.815 217.480,145.820 212.810,199.032 213.051 C 243.110 213.251,242.316 213.321,245.848 208.958 L 247.855 206.479 248.039 176.208 L 248.223 145.937 250.194 144.534 C 253.481 142.193,254.125 140.146,254.125 132.037 C 254.125 120.595,252.320 118.681,241.584 118.747 C 235.281 118.786,233.209 118.067,235.210 116.536 C 241.482 111.740,235.203 99.915,223.324 94.151 C 221.931 93.476,220.276 92.659,219.646 92.336 C 213.888 89.388,206.336 93.682,201.931 102.409 C 200.038 106.158,198.680 107.342,198.680 105.243 C 198.680 103.800,195.599 98.385,193.503 96.144 C 188.882 91.203,183.644 90.565,176.530 94.077 M188.403 98.601 C 192.544 101.759,197.971 116.250,195.649 117.948 C 194.282 118.947,186.920 118.552,179.538 117.082 C 164.646 114.117,163.134 109.541,174.416 101.573 C 181.558 96.528,184.786 95.842,188.403 98.601 M219.978 98.440 C 228.485 102.780,233.999 108.943,232.044 111.927 C 229.573 115.697,215.690 118.914,204.785 118.243 C 202.720 118.116,202.803 114.989,205.037 108.794 C 208.969 97.895,213.184 94.974,219.978 98.440 M187.459 125.013 C 187.459 125.434,186.973 126.472,186.380 127.319 C 185.787 128.166,184.962 131.425,184.546 134.561 L 183.791 140.264 168.364 140.441 C 149.492 140.658,150.495 141.113,150.495 132.343 C 150.495 123.655,149.393 124.155,169.016 123.939 C 186.226 123.751,187.459 123.822,187.459 125.013 M248.410 125.548 C 249.428 126.788,249.589 127.950,249.400 132.720 C 249.066 141.156,250.246 140.649,231.428 140.441 L 215.512 140.264 215.137 135.644 C 214.931 133.102,214.164 129.686,213.432 128.053 C 211.432 123.589,210.803 123.747,229.868 123.916 C 246.924 124.067,247.214 124.092,248.410 125.548 M205.863 126.438 C 208.460 128.751,209.901 132.520,209.901 136.994 L 209.901 140.628 199.835 140.446 L 189.769 140.264 189.959 135.644 C 190.368 125.703,199.261 120.555,205.863 126.438 M62.547 158.966 C 62.694 187.344,62.583 192.079,61.773 192.079 C 60.453 192.079,15.177 159.761,15.203 158.838 C 15.230 157.887,60.824 125.339,61.716 125.634 C 62.141 125.775,62.437 137.629,62.547 158.966 M362.046 141.903 C 374.389 150.721,384.570 158.001,384.669 158.081 C 385.740 158.944,341.451 191.448,338.507 191.960 C 337.343 192.163,337.294 190.821,337.294 158.715 C 337.294 127.175,337.360 125.276,338.449 125.564 C 339.084 125.732,349.703 133.084,362.046 141.903 M181.518 146.842 C 181.518 148.456,177.680 152.299,174.558 153.809 C 172.100 154.999,171.617 155.542,171.617 157.110 C 171.617 162.873,183.254 156.575,186.623 148.988 C 187.870 146.181,189.025 145.698,193.773 145.998 L 197.030 146.205 197.202 176.162 C 197.328 198.280,197.171 206.362,196.601 207.049 C 195.255 208.671,160.341 208.016,158.484 206.333 C 157.090 205.070,156.183 147.668,157.536 146.315 C 158.533 145.318,181.518 145.823,181.518 146.842 M212.501 148.585 C 215.713 154.299,221.739 159.241,225.496 159.241 C 229.468 159.241,229.083 155.834,224.869 153.692 C 221.736 152.100,217.639 148.073,218.013 146.952 C 218.186 146.432,221.955 146.205,230.418 146.205 L 242.574 146.205 242.746 175.331 C 242.911 203.212,242.864 204.524,241.650 206.024 L 240.382 207.591 222.441 207.786 C 209.467 207.928,204.242 207.768,203.570 207.211 C 202.584 206.392,202.109 147.286,203.080 146.315 C 204.922 144.473,211.015 145.941,212.501 148.585 M15.764 166.467 C 17.077 167.264,18.300 168.088,18.482 168.297 C 18.663 168.506,19.695 169.241,20.775 169.929 C 21.855 170.618,23.043 171.434,23.415 171.742 C 23.788 172.050,26.617 174.097,29.703 176.289 C 37.555 181.868,38.126 182.283,40.751 184.323 C 42.035 185.322,43.286 186.139,43.531 186.139 C 43.775 186.139,44.562 186.658,45.280 187.294 C 46.698 188.549,47.294 188.980,57.494 196.118 C 61.268 198.759,64.653 201.166,65.017 201.466 C 66.129 202.384,88.501 218.309,93.176 221.510 C 95.595 223.165,98.091 225.092,98.724 225.791 C 99.357 226.491,100.114 227.063,100.406 227.063 C 100.699 227.063,106.625 231.147,113.575 236.139 C 120.526 241.130,128.442 246.749,131.167 248.625 C 133.892 250.501,136.757 252.580,137.533 253.246 C 138.309 253.911,139.835 255.026,140.924 255.722 C 142.013 256.419,146.172 259.402,150.165 262.351 C 154.158 265.300,158.168 268.219,159.076 268.837 C 159.983 269.455,162.696 271.373,165.103 273.099 C 191.289 291.875,189.358 290.661,195.350 292.118 C 203.478 294.093,207.951 292.452,222.129 282.289 C 223.227 281.502,226.197 279.384,228.729 277.582 C 231.261 275.780,233.630 274.070,233.993 273.781 C 234.356 273.492,237.688 271.105,241.396 268.476 C 256.885 257.496,278.491 242.075,279.631 241.187 C 280.306 240.661,284.504 237.639,288.960 234.472 C 293.417 231.304,298.059 227.970,299.276 227.063 C 300.493 226.155,304.718 223.119,308.665 220.316 C 312.612 217.514,316.168 214.945,316.567 214.608 C 316.966 214.271,322.164 210.558,328.118 206.357 C 334.072 202.156,339.241 198.482,339.604 198.192 C 341.032 197.053,349.616 190.987,351.485 189.797 C 352.574 189.104,353.860 188.144,354.342 187.663 C 354.824 187.183,355.807 186.475,356.527 186.090 C 357.246 185.705,360.178 183.627,363.042 181.474 C 365.906 179.320,368.426 177.558,368.642 177.558 C 368.858 177.558,369.835 176.815,370.814 175.908 C 371.793 175.000,372.894 174.252,373.261 174.245 C 373.627 174.238,375.116 173.195,376.568 171.927 C 378.020 170.660,379.728 169.457,380.363 169.255 C 380.998 169.053,381.518 168.666,381.518 168.394 C 381.518 167.909,386.259 165.017,387.054 165.017 C 388.074 165.017,387.483 329.848,386.446 334.319 C 381.608 355.177,365.858 370.304,344.884 374.234 C 340.355 375.083,57.971 374.813,52.805 373.955 C 51.172 373.684,49.553 373.196,49.208 372.870 C 48.863 372.544,48.144 372.277,47.610 372.277 C 47.076 372.277,44.685 371.341,42.296 370.196 C 27.309 363.012,16.854 349.888,13.458 333.994 C 12.500 329.508,12.013 165.017,12.958 165.017 C 13.188 165.017,14.450 165.669,15.764 166.467 " stroke="none" fill="#000000" fill-rule="evenodd"></path></g></svg>